<svg viewBox="-0.625 -0.625 20 20" fill="none" xmlns="http://www.w3.org/2000/svg" id="Gps--Streamline-Solar-Ar" height="20" width="20">
  <desc>
    GPS Streamline Icon: https://streamlinehq.com
  </desc>
  <path d="M15.625 9.375c0 3.4517968750000003 -2.798203125 6.25 -6.25 6.25 -3.4517812500000002 0 -6.25 -2.798203125 -6.25 -6.25 0 -3.4517812500000002 2.7982187499999998 -6.25 6.25 -6.25 3.4517968750000003 0 6.25 2.7982187499999998 6.25 6.25Z" stroke="#000000" stroke-width="1.25"></path>
  <path d="M11.71875 9.375c0 1.294453125 -1.049296875 2.34375 -2.34375 2.34375s-2.34375 -1.049296875 -2.34375 -2.34375 1.049296875 -2.34375 2.34375 -2.34375 2.34375 1.049296875 2.34375 2.34375Z" stroke="#000000" stroke-width="1.25"></path>
  <path d="m1.5625 9.375 1.5625 0" stroke="#000000" stroke-linecap="round" stroke-width="1.25"></path>
  <path d="m15.625 9.375 1.5625 0" stroke="#000000" stroke-linecap="round" stroke-width="1.25"></path>
  <path d="M9.375 3.125V1.5625" stroke="#000000" stroke-linecap="round" stroke-width="1.25"></path>
  <path d="M9.375 17.1875v-1.5625" stroke="#000000" stroke-linecap="round" stroke-width="1.25"></path>
</svg>