<?xml version="1.0" encoding="utf-8"?>
<!-- Generator: Adobe Illustrator 28.0.0, SVG Export Plug-In . SVG Version: 6.00 Build 0)  -->
<svg version="1.1" id="Layer_1" xmlns="http://www.w3.org/2000/svg" xmlns:xlink="http://www.w3.org/1999/xlink" x="0px" y="0px"
	 viewBox="0 0 384 512" style="enable-background:new 0 0 384 512;" xml:space="preserve">
<style type="text/css">
	.st0{fill:#001E60;}
	.st1{fill:#FFFFFF;}
</style>
<path class="st0" d="M172.3,501.7C27,291,0,269.4,0,192C0,86,86,0,192,0s192,86,192,192c0,77.4-27,99-172.3,309.7
	C202.2,515.4,181.8,515.4,172.3,501.7L172.3,501.7z"/>
<g>
	<g>
		<path class="st1" d="M141.1,170.2h-6.3c-0.3,0-0.6,0.3-0.6,0.6v37.9c0,0.3,0.3,0.6,0.6,0.6h6.3c0.3,0,0.6-0.3,0.6-0.6v-11.3
			c0-0.2,0.2-0.3,0.3-0.1l9.3,11.7c0.1,0.2,0.4,0.3,0.6,0.3h8.4c0.3,0,0.5-0.4,0.3-0.6l-12.2-13.7c-0.1-0.1-0.1-0.3,0-0.4l12.1-13.8
			c0.2-0.2,0-0.6-0.3-0.6h-8.4c-0.2,0-0.4,0.1-0.6,0.3L142,192c-0.1,0.1-0.3,0.1-0.3-0.1v-21.1C141.7,170.4,141.4,170.2,141.1,170.2
			L141.1,170.2z"/>
		<path class="st1" d="M214.6,209.2h6.3c0.3,0,0.6-0.3,0.6-0.6v-16.6c0-2.6-0.5-4.9-1.4-6.8c-1-1.9-2.3-3.3-4-4.3
			c-1.7-1-3.7-1.4-5.9-1.4c-1.9,0-3.7,0.4-5.3,1.1c-1.4,0.6-2.6,1.5-3.5,2.6c-0.1,0.1-0.3,0.1-0.3-0.1v-12.3c0-0.3-0.3-0.6-0.6-0.6
			h-6.3c-0.3,0-0.6,0.3-0.6,0.6v37.9c0,0.3,0.3,0.6,0.6,0.6h6.3c0.3,0,0.6-0.3,0.6-0.6v-15.6c0-2.3,0.6-4.1,1.8-5.3s2.8-1.9,4.8-1.9
			c2,0,3.6,0.6,4.7,1.9s1.7,3,1.7,5.3v15.6C214,208.9,214.2,209.2,214.6,209.2L214.6,209.2z"/>
		<path class="st1" d="M246.2,209.2h6.3c0.3,0,0.6-0.3,0.6-0.6v-28.1c0-0.3-0.3-0.6-0.6-0.6h-6.3c-0.3,0-0.6,0.3-0.6,0.6v15.5
			c0,2.3-0.6,4.1-1.7,5.3c-1.2,1.2-2.8,1.9-4.8,1.9c-2,0-3.6-0.6-4.7-1.9s-1.7-3-1.7-5.3v-15.5c0-0.3-0.3-0.6-0.6-0.6h-6.3
			c-0.3,0-0.6,0.3-0.6,0.6v16.6c0,2.6,0.5,4.8,1.5,6.7c1,1.9,2.4,3.3,4.1,4.3c1.8,1,3.8,1.4,6.1,1.4c1.8,0,3.5-0.4,5-1.1
			c1.4-0.6,2.5-1.5,3.4-2.6c0.1-0.1,0.3-0.1,0.3,0.1v2.6C245.6,208.9,245.9,209.2,246.2,209.2L246.2,209.2z"/>
		<path class="st1" d="M271.9,179.4c-8.4,0-15.2,6.8-15.2,15.2s6.8,15.2,15.2,15.2c8.4,0,15.2-6.8,15.2-15.2
			S280.3,179.4,271.9,179.4z M271.9,202.9c-4.6,0-8.3-3.7-8.3-8.3s3.7-8.3,8.3-8.3s8.3,3.7,8.3,8.3S276.4,202.9,271.9,202.9z"/>
		<path class="st1" d="M335.8,179.4c-8.4,0-15.2,6.8-15.2,15.2s6.8,15.2,15.2,15.2c8.4,0,15.2-6.8,15.2-15.2
			S344.2,179.4,335.8,179.4z M335.8,202.9c-4.6,0-8.3-3.7-8.3-8.3s3.7-8.3,8.3-8.3s8.3,3.7,8.3,8.3S340.4,202.9,335.8,202.9z"/>
		<path class="st1" d="M72.5,172.4h-7.4c-0.2,0-0.4,0.1-0.5,0.3l-11.4,26.6c-0.1,0.2-0.3,0.2-0.3,0l-11.4-26.6
			c-0.1-0.2-0.3-0.3-0.5-0.3h-7.4c-0.3,0-0.6,0.3-0.6,0.6v35.6c0,0.3,0.3,0.6,0.6,0.6h6.3c0.3,0,0.6-0.3,0.6-0.6v-22.4
			c0-0.2,0.3-0.3,0.4-0.1l9.4,22.7c0.1,0.2,0.3,0.3,0.5,0.3h4.8c0.2,0,0.4-0.1,0.5-0.3l9.3-22.7c0.1-0.2,0.4-0.1,0.4,0.1v22.4
			c0,0.3,0.3,0.6,0.6,0.6h6.3c0.3,0,0.6-0.3,0.6-0.6V173C73.1,172.7,72.8,172.4,72.5,172.4L72.5,172.4z"/>
		<path class="st1" d="M319.4,180h-5.8c-0.1,0-0.2-0.1-0.2-0.2v-6.5c0-0.3-0.3-0.6-0.6-0.6h-6.3c-0.3,0-0.6,0.3-0.6,0.6v6.5
			c0,0.1-0.1,0.2-0.2,0.2h-2.7c-0.3,0-0.6,0.3-0.6,0.6v4.9c0,0.3,0.3,0.6,0.6,0.6h2.7c0.1,0,0.2,0.1,0.2,0.2v13.9
			c0,6,3.1,9.1,9.3,9.1h4.1c0.3,0,0.6-0.3,0.6-0.6v-5.8c0-0.3-0.3-0.6-0.6-0.6h-5.8c-0.1,0-0.2-0.1-0.2-0.2v-15.9
			c0-0.1,0.1-0.2,0.2-0.2h5.8c0.3,0,0.6-0.3,0.6-0.6v-4.9C320,180.2,319.7,180,319.4,180L319.4,180z"/>
		<path class="st1" d="M302,202.3l-4.2,0c-0.1,0-0.2-0.1-0.2-0.2l0-31.4c0-0.3-0.3-0.6-0.6-0.6h-6.3c-0.3,0-0.6,0.3-0.6,0.6v29.4
			c0,6,3.1,9.1,9.3,9.1l2.5,0c0.3,0,0.6-0.3,0.6-0.6v-5.8C302.6,202.5,302.3,202.3,302,202.3L302,202.3z"/>
		<path class="st1" d="M107.8,208.6v-28.4c0-0.3-0.3-0.6-0.6-0.6h-5.8c-0.3,0-0.6,0.3-0.6,0.6v2.4c0,0.2-0.2,0.3-0.3,0.1
			c-0.9-1-3.6-3.4-8-3.4l0,0c0,0,0,0-0.1,0l0,0c-7.9,0-15.1,6.5-15.1,15.1c0,8.8,7.2,15.2,15.1,15.2l0,0c0,0,0,0,0.1,0l0,0
			c4.3,0,7.1-2.5,8-3.4c0.1-0.1,0.3,0,0.3,0.1v2.4c0,0.3,0.3,0.6,0.6,0.6h5.8C107.5,209.1,107.8,208.9,107.8,208.6L107.8,208.6z
			 M92.6,202.7c-4.6,0-8.3-3.6-8.3-8.4c0-4.6,3.7-8.3,8.3-8.3c4.6,0,8.3,3.8,8.3,8.4C100.8,199,97.1,202.7,92.6,202.7z"/>
		<path class="st1" d="M182.7,209.1h5.8c0.3,0,0.6-0.3,0.6-0.6v-28.4c0-0.3-0.3-0.6-0.6-0.6h-5.8c-0.3,0-0.6,0.3-0.6,0.6v2.4
			c0,0.2-0.2,0.3-0.3,0.1c-0.9-1-3.6-3.4-8-3.4l0,0c0,0,0,0-0.1,0l0,0c-7.9,0-15.1,6.5-15.1,15.1c0,8.8,7.2,15.2,15.1,15.2l0,0
			c0,0,0,0,0.1,0l0,0c4.3,0,7.1-2.5,8-3.4c0.1-0.1,0.3,0,0.3,0.1v2.4C182.1,208.9,182.4,209.1,182.7,209.1L182.7,209.1z
			 M173.9,202.7c-4.6,0-8.3-3.6-8.3-8.4c0-4.6,3.7-8.3,8.3-8.3c4.6,0,8.3,3.8,8.3,8.4C182.1,199,178.4,202.7,173.9,202.7z"/>
		<path class="st1" d="M123,186h5.8c0.3,0,0.6-0.3,0.6-0.6v-4.9c0-0.3-0.3-0.6-0.6-0.6H123c-0.1,0-0.2-0.1-0.2-0.2v-6.5
			c0-0.3-0.3-0.6-0.6-0.6h-6.3c-0.3,0-0.6,0.3-0.6,0.6v6.5c0,0.1-0.1,0.2-0.2,0.2h-2.7c-0.3,0-0.6,0.3-0.6,0.6v4.9
			c0,0.3,0.3,0.6,0.6,0.6h2.7c0.1,0,0.2,0.1,0.2,0.2v13.9c0,6,3.1,9.1,9.3,9.1h4.1c0.3,0,0.6-0.3,0.6-0.6v-5.8
			c0-0.3-0.3-0.6-0.6-0.6H123c-0.1,0-0.2-0.1-0.2-0.2v-15.9C122.8,186.1,122.9,186,123,186L123,186z"/>
	</g>
	<g>
		<path class="st1" d="M99.6,158.7h32.5c0.7,0,1.3-0.4,1.6-0.9c11.3-19,32.1-31.8,55.8-31.8c23.8,0,44.5,12.8,55.8,31.8
			c0.3,0.6,0.9,0.9,1.6,0.9h32.5c0.8,0,1.3-0.8,1.1-1.5c-13.7-37-49.3-63.4-91-63.4c-41.7,0-77.3,26.4-91,63.4
			C98.3,157.9,98.8,158.7,99.6,158.7L99.6,158.7z"/>
		<path class="st1" d="M279.5,222.9H247c-0.7,0-1.3,0.4-1.6,0.9c-11.3,19-32.1,31.8-55.8,31.8s-44.5-12.8-55.8-31.8
			c-0.3-0.6-0.9-0.9-1.6-0.9H99.6c-0.8,0-1.3,0.8-1.1,1.5c13.7,37,49.3,63.4,91,63.4c41.7,0,77.3-26.4,91-63.4
			C280.8,223.7,280.3,222.9,279.5,222.9L279.5,222.9z"/>
	</g>
</g>
</svg>
