<svg width="201" height="200" viewBox="0 0 201 200" fill="none" xmlns="http://www.w3.org/2000/svg">
<path d="M24.7313 44.7224C31.0888 88.4605 52.7974 122.378 85.0834 139.016C117.369 155.653 157.589 153.65 196.898 133.445L24.7313 44.7224Z" fill="#FFBC00"/>
<path d="M98.36 164.43C73.25 164.43 59.48 148.23 59.48 148.23L65.15 136.08C65.15 136.08 76.49 150.66 98.36 150.66C113.75 150.66 121.85 142.56 121.85 131.22C121.85 104.49 63.53 107.73 63.53 70.4699C63.53 54.2699 76.49 41.3099 99.17 41.3099C121.04 41.3099 132.38 53.4599 132.38 53.4599L126.71 65.6099C126.71 65.6099 116.18 55.0799 99.17 55.0799C85.4 55.0799 78.92 61.5599 78.92 71.2799C78.92 94.7699 137.24 94.77 137.24 129.6C137.24 149.85 122.66 164.43 98.36 164.43Z" fill="black"/>
</svg>
