<?xml version="1.0" encoding="utf-8"?>
<!-- Generator: Adobe Illustrator 28.0.0, SVG Export Plug-In . SVG Version: 6.00 Build 0)  -->
<svg version="1.1" id="Layer_1" xmlns="http://www.w3.org/2000/svg" xmlns:xlink="http://www.w3.org/1999/xlink" x="0px" y="0px"
	 viewBox="0 0 708.7 432.2" style="enable-background:new 0 0 708.7 432.2;" xml:space="preserve">
<style type="text/css">
	.st0{fill:none;}
	.st1{fill:#001E60;}
</style>
<rect x="-67.7" y="-67.4" class="st0" width="844" height="567"/>
<g>
	<g>
		<path class="st1" d="M241,170.2h-13.9c-0.7,0-1.2,0.6-1.2,1.2v84.4c0,0.7,0.6,1.2,1.2,1.2H241c0.7,0,1.2-0.6,1.2-1.2v-25.3
			c0-0.4,0.5-0.6,0.7-0.3l20.8,26.1c0.3,0.4,0.8,0.6,1.3,0.6h18.7c0.7,0,1.1-0.9,0.6-1.4L257.2,225c-0.2-0.2-0.2-0.6,0-0.8
			l27.1-30.8c0.5-0.5,0.1-1.4-0.6-1.4h-18.7c-0.5,0-1,0.2-1.3,0.6l-20.6,26c-0.2,0.3-0.7,0.1-0.7-0.3v-47
			C242.3,170.7,241.7,170.2,241,170.2L241,170.2z"/>
		<path class="st1" d="M404.6,257h13.9c0.7,0,1.2-0.6,1.2-1.2v-36.9c0-5.9-1.1-10.9-3.2-15.1c-2.2-4.2-5.2-7.4-9-9.5
			c-3.8-2.1-8.2-3.2-13.1-3.2c-4.3,0-8.2,0.8-11.7,2.4c-3.1,1.4-5.7,3.3-7.7,5.7c-0.2,0.3-0.7,0.1-0.7-0.3v-27.5
			c0-0.7-0.6-1.2-1.2-1.2h-13.9c-0.7,0-1.2,0.6-1.2,1.2v84.4c0,0.7,0.6,1.2,1.2,1.2H373c0.7,0,1.2-0.6,1.2-1.2v-34.7
			c0-5.2,1.3-9.1,3.9-11.9s6.2-4.2,10.7-4.2c4.5,0,8,1.4,10.6,4.2c2.6,2.8,3.9,6.8,3.9,11.9v34.7C403.3,256.4,403.9,257,404.6,257
			L404.6,257z"/>
		<path class="st1" d="M475,257h14c0.7,0,1.2-0.6,1.2-1.2v-62.5c0-0.7-0.6-1.2-1.2-1.2h-14c-0.7,0-1.2,0.6-1.2,1.2v34.5
			c0,5.2-1.3,9.1-3.9,11.9c-2.6,2.8-6.1,4.2-10.7,4.2s-8-1.4-10.6-4.2s-3.9-6.8-3.9-11.9v-34.5c0-0.7-0.6-1.2-1.2-1.2h-13.9
			c-0.7,0-1.2,0.6-1.2,1.2v36.9c0,5.8,1.1,10.8,3.3,15c2.2,4.2,5.3,7.4,9.2,9.5c3.9,2.2,8.4,3.2,13.5,3.2c4,0,7.7-0.8,11.1-2.4
			c3-1.4,5.5-3.3,7.5-5.7c0.2-0.3,0.7-0.1,0.7,0.3v5.8C473.8,256.4,474.3,257,475,257L475,257z"/>
		<path class="st1" d="M532.3,190.7c-18.7,0-33.8,15.2-33.8,33.8s15.2,33.8,33.8,33.8c18.7,0,33.8-15.2,33.8-33.8
			S551,190.7,532.3,190.7z M532.3,243c-10.2,0-18.4-8.3-18.4-18.4s8.3-18.4,18.4-18.4s18.4,8.3,18.4,18.4S542.5,243,532.3,243z"/>
		<path class="st1" d="M674.8,190.7c-18.7,0-33.8,15.2-33.8,33.8s15.2,33.8,33.8,33.8c18.7,0,33.8-15.2,33.8-33.8
			S693.5,190.7,674.8,190.7z M674.8,243c-10.2,0-18.4-8.3-18.4-18.4s8.3-18.4,18.4-18.4s18.4,8.3,18.4,18.4S685,243,674.8,243z"/>
		<path class="st1" d="M88.1,175.1H71.6c-0.5,0-0.9,0.3-1.1,0.8l-25.3,59.3c-0.1,0.3-0.6,0.3-0.8,0L19,175.8
			c-0.2-0.5-0.7-0.8-1.2-0.8H1.2c-0.7,0-1.2,0.6-1.2,1.2v79.4c0,0.7,0.6,1.3,1.2,1.3h13.9c0.7,0,1.2-0.6,1.2-1.3v-49.9
			c0-0.5,0.6-0.6,0.8-0.2l20.9,50.6c0.2,0.5,0.7,0.8,1.2,0.8h10.8c0.5,0,1-0.3,1.2-0.8l20.8-50.6c0.2-0.4,0.8-0.3,0.8,0.2v49.9
			c0,0.7,0.6,1.3,1.2,1.3h13.9c0.7,0,1.2-0.6,1.2-1.3v-79.4C89.3,175.6,88.8,175.1,88.1,175.1L88.1,175.1z"/>
		<path class="st1" d="M638.3,192h-12.9c-0.2,0-0.4-0.2-0.4-0.4v-14.4c0-0.7-0.6-1.2-1.2-1.2h-14c-0.7,0-1.2,0.6-1.2,1.2v14.4
			c0,0.2-0.2,0.4-0.4,0.4h-6.1c-0.7,0-1.2,0.6-1.2,1.2v11c0,0.7,0.6,1.2,1.2,1.2h6.1c0.2,0,0.4,0.2,0.4,0.4v30.9
			c0,13.5,6.9,20.2,20.8,20.2h9.1c0.7,0,1.2-0.6,1.2-1.3v-12.8c0-0.7-0.6-1.2-1.2-1.2h-12.9c-0.2,0-0.4-0.2-0.4-0.4v-35.4
			c0-0.2,0.2-0.4,0.4-0.4h12.9c0.7,0,1.2-0.6,1.2-1.2v-11C639.5,192.5,639,192,638.3,192L638.3,192z"/>
		<path class="st1" d="M599.4,241.6l-9.5,0.1c-0.2,0-0.4-0.2-0.4-0.4l-0.1-69.9c0-0.7-0.6-1.2-1.2-1.2h-13.9c-0.7,0-1.2,0.6-1.2,1.2
			v65.4c0,13.5,6.9,20.2,20.8,20.2l5.7-0.1c0.7,0,1.2-0.6,1.2-1.2v-12.8C600.7,242.1,600.1,241.6,599.4,241.6L599.4,241.6z"/>
		<path class="st1" d="M166.6,255.6v-63.3c0-0.7-0.6-1.2-1.2-1.2h-12.9c-0.7,0-1.2,0.6-1.2,1.2v5.3c0,0.4-0.5,0.6-0.7,0.3
			c-2-2.1-8.1-7.7-17.7-7.7l0,0c0,0-0.1,0-0.1,0l0,0c-17.6,0-33.7,14.4-33.7,33.6c0,19.6,16.1,33.8,33.7,33.8l0,0c0,0,0.1,0,0.1,0
			l0,0c9.7,0,15.7-5.5,17.7-7.7c0.3-0.3,0.7-0.1,0.7,0.3v5.3c0,0.7,0.6,1.2,1.2,1.2h12.9C166.1,256.9,166.6,256.3,166.6,255.6
			L166.6,255.6z M132.8,242.6c-10.2,0-18.4-8.1-18.4-18.7c0-10.2,8.3-18.4,18.4-18.4s18.4,8.5,18.4,18.7
			C151.2,234.2,143,242.6,132.8,242.6z"/>
		<path class="st1" d="M333.6,256.9h12.9c0.7,0,1.2-0.6,1.2-1.3v-63.3c0-0.7-0.6-1.2-1.2-1.2h-12.9c-0.7,0-1.2,0.6-1.2,1.2v5.3
			c0,0.4-0.5,0.6-0.7,0.3c-2-2.1-8.1-7.7-17.7-7.7l0,0c0,0-0.1,0-0.1,0l0,0c-17.6,0-33.7,14.4-33.7,33.6c0,19.6,16.1,33.8,33.7,33.8
			l0,0c0,0,0.1,0,0.1,0l0,0c9.7,0,15.7-5.5,17.7-7.7c0.3-0.3,0.7-0.1,0.7,0.3v5.3C332.4,256.3,332.9,256.9,333.6,256.9L333.6,256.9z
			 M313.9,242.6c-10.2,0-18.4-8.1-18.4-18.7c0-10.2,8.3-18.4,18.4-18.4c10.2,0,18.4,8.5,18.4,18.7
			C332.4,234.2,324.1,242.6,313.9,242.6z"/>
		<path class="st1" d="M200.6,205.5h12.9c0.7,0,1.2-0.6,1.2-1.2v-11c0-0.7-0.6-1.2-1.2-1.2h-12.9c-0.2,0-0.4-0.2-0.4-0.4v-14.4
			c0-0.7-0.6-1.2-1.2-1.2h-14.1c-0.7,0-1.2,0.6-1.2,1.2v14.4c0,0.2-0.2,0.4-0.4,0.4h-6.1c-0.7,0-1.2,0.6-1.2,1.2v11
			c0,0.7,0.6,1.2,1.2,1.2h6.1c0.2,0,0.4,0.2,0.4,0.4v30.9c0,13.5,6.9,20.2,20.8,20.2h9.1c0.7,0,1.2-0.6,1.2-1.3v-12.8
			c0-0.7-0.6-1.2-1.2-1.2h-12.9c-0.2,0-0.4-0.2-0.4-0.4v-35.4C200.2,205.7,200.3,205.5,200.6,205.5L200.6,205.5z"/>
	</g>
	<g>
		<path class="st1" d="M148.5,144.5h72.4c1.5,0,2.8-0.8,3.6-2.1c25.2-42.4,71.4-70.9,124.4-70.9c52.9,0,99.2,28.4,124.4,70.9
			c0.8,1.3,2.1,2.1,3.6,2.1h72.4c1.7,0,3-1.7,2.4-3.4C521.2,58.8,441.9,0,348.9,0c-93,0-172.3,58.8-202.7,141.2
			C145.5,142.8,146.8,144.5,148.5,144.5L148.5,144.5z"/>
		<path class="st1" d="M549.3,287.6h-72.4c-1.5,0-2.8,0.8-3.6,2.1c-25.2,42.4-71.5,70.9-124.4,70.9s-99.2-28.5-124.4-70.9
			c-0.8-1.3-2.1-2.1-3.6-2.1h-72.4c-1.7,0-3,1.7-2.4,3.4c30.5,82.4,109.8,141.2,202.7,141.2c93,0,172.3-58.8,202.8-141.2
			C552.2,289.4,551,287.6,549.3,287.6L549.3,287.6z"/>
	</g>
</g>
</svg>
